<mxfile host="app.diagrams.net" modified="2023-09-27T21:09:49.304Z" agent="Mozilla/5.0 (Macintosh; Intel Mac OS X 10.15; rv:109.0) Gecko/20100101 Firefox/117.0" etag="h3YDJhCiioY4hfuCI6DO" version="21.8.2" type="github">
  <diagram name="PÃ¡gina-1" id="7rZfgD4BE9MZZdcU4T84">
    <mxGraphModel dx="2074" dy="797" grid="1" gridSize="10" guides="1" tooltips="1" connect="1" arrows="1" fold="1" page="0" pageScale="1" pageWidth="827" pageHeight="1169" math="0" shadow="0">
      <root>
        <mxCell id="0" />
        <mxCell id="1" parent="0" />
        <mxCell id="f68c-j39fGmjq_flesXu-10" value="Membership" style="swimlane;fontStyle=1;align=center;verticalAlign=top;childLayout=stackLayout;horizontal=1;startSize=26;horizontalStack=0;resizeParent=1;resizeParentMax=0;resizeLast=0;collapsible=1;marginBottom=0;whiteSpace=wrap;html=1;" parent="1" vertex="1">
          <mxGeometry x="310" y="50" width="160" height="60" as="geometry" />
        </mxCell>
        <mxCell id="f68c-j39fGmjq_flesXu-12" value="" style="line;strokeWidth=1;fillColor=none;align=left;verticalAlign=middle;spacingTop=-1;spacingLeft=3;spacingRight=3;rotatable=0;labelPosition=right;points=[];portConstraint=eastwest;strokeColor=inherit;" parent="f68c-j39fGmjq_flesXu-10" vertex="1">
          <mxGeometry y="26" width="160" height="8" as="geometry" />
        </mxCell>
        <mxCell id="f68c-j39fGmjq_flesXu-13" value="discount(): BigDecimal" style="text;strokeColor=none;fillColor=none;align=left;verticalAlign=top;spacingLeft=4;spacingRight=4;overflow=hidden;rotatable=0;points=[[0,0.5],[1,0.5]];portConstraint=eastwest;whiteSpace=wrap;html=1;" parent="f68c-j39fGmjq_flesXu-10" vertex="1">
          <mxGeometry y="34" width="160" height="26" as="geometry" />
        </mxCell>
        <mxCell id="f68c-j39fGmjq_flesXu-14" value="&lt;div&gt;NoMembership&lt;/div&gt;" style="swimlane;fontStyle=1;align=center;verticalAlign=top;childLayout=stackLayout;horizontal=1;startSize=26;horizontalStack=0;resizeParent=1;resizeParentMax=0;resizeLast=0;collapsible=1;marginBottom=0;whiteSpace=wrap;html=1;" parent="1" vertex="1">
          <mxGeometry x="25" y="190" width="160" height="60" as="geometry" />
        </mxCell>
        <mxCell id="f68c-j39fGmjq_flesXu-16" value="" style="line;strokeWidth=1;fillColor=none;align=left;verticalAlign=middle;spacingTop=-1;spacingLeft=3;spacingRight=3;rotatable=0;labelPosition=right;points=[];portConstraint=eastwest;strokeColor=inherit;" parent="f68c-j39fGmjq_flesXu-14" vertex="1">
          <mxGeometry y="26" width="160" height="8" as="geometry" />
        </mxCell>
        <mxCell id="f68c-j39fGmjq_flesXu-17" value="discount(): BigDecimal" style="text;strokeColor=none;fillColor=none;align=left;verticalAlign=top;spacingLeft=4;spacingRight=4;overflow=hidden;rotatable=0;points=[[0,0.5],[1,0.5]];portConstraint=eastwest;whiteSpace=wrap;html=1;" parent="f68c-j39fGmjq_flesXu-14" vertex="1">
          <mxGeometry y="34" width="160" height="26" as="geometry" />
        </mxCell>
        <mxCell id="f68c-j39fGmjq_flesXu-18" value="SilverMembership" style="swimlane;fontStyle=1;align=center;verticalAlign=top;childLayout=stackLayout;horizontal=1;startSize=26;horizontalStack=0;resizeParent=1;resizeParentMax=0;resizeLast=0;collapsible=1;marginBottom=0;whiteSpace=wrap;html=1;" parent="1" vertex="1">
          <mxGeometry x="210" y="190" width="160" height="60" as="geometry" />
        </mxCell>
        <mxCell id="f68c-j39fGmjq_flesXu-20" value="" style="line;strokeWidth=1;fillColor=none;align=left;verticalAlign=middle;spacingTop=-1;spacingLeft=3;spacingRight=3;rotatable=0;labelPosition=right;points=[];portConstraint=eastwest;strokeColor=inherit;" parent="f68c-j39fGmjq_flesXu-18" vertex="1">
          <mxGeometry y="26" width="160" height="8" as="geometry" />
        </mxCell>
        <mxCell id="f68c-j39fGmjq_flesXu-21" value="discount(): BigDecimal" style="text;strokeColor=none;fillColor=none;align=left;verticalAlign=top;spacingLeft=4;spacingRight=4;overflow=hidden;rotatable=0;points=[[0,0.5],[1,0.5]];portConstraint=eastwest;whiteSpace=wrap;html=1;" parent="f68c-j39fGmjq_flesXu-18" vertex="1">
          <mxGeometry y="34" width="160" height="26" as="geometry" />
        </mxCell>
        <mxCell id="f68c-j39fGmjq_flesXu-22" value="GoldMembership" style="swimlane;fontStyle=1;align=center;verticalAlign=top;childLayout=stackLayout;horizontal=1;startSize=26;horizontalStack=0;resizeParent=1;resizeParentMax=0;resizeLast=0;collapsible=1;marginBottom=0;whiteSpace=wrap;html=1;" parent="1" vertex="1">
          <mxGeometry x="400" y="190" width="160" height="60" as="geometry" />
        </mxCell>
        <mxCell id="f68c-j39fGmjq_flesXu-24" value="" style="line;strokeWidth=1;fillColor=none;align=left;verticalAlign=middle;spacingTop=-1;spacingLeft=3;spacingRight=3;rotatable=0;labelPosition=right;points=[];portConstraint=eastwest;strokeColor=inherit;" parent="f68c-j39fGmjq_flesXu-22" vertex="1">
          <mxGeometry y="26" width="160" height="8" as="geometry" />
        </mxCell>
        <mxCell id="f68c-j39fGmjq_flesXu-25" value="discount(): BigDecimal" style="text;strokeColor=none;fillColor=none;align=left;verticalAlign=top;spacingLeft=4;spacingRight=4;overflow=hidden;rotatable=0;points=[[0,0.5],[1,0.5]];portConstraint=eastwest;whiteSpace=wrap;html=1;" parent="f68c-j39fGmjq_flesXu-22" vertex="1">
          <mxGeometry y="34" width="160" height="26" as="geometry" />
        </mxCell>
        <mxCell id="f68c-j39fGmjq_flesXu-26" value="PremiumMembership" style="swimlane;fontStyle=1;align=center;verticalAlign=top;childLayout=stackLayout;horizontal=1;startSize=26;horizontalStack=0;resizeParent=1;resizeParentMax=0;resizeLast=0;collapsible=1;marginBottom=0;whiteSpace=wrap;html=1;" parent="1" vertex="1">
          <mxGeometry x="590" y="190" width="160" height="60" as="geometry" />
        </mxCell>
        <mxCell id="f68c-j39fGmjq_flesXu-28" value="" style="line;strokeWidth=1;fillColor=none;align=left;verticalAlign=middle;spacingTop=-1;spacingLeft=3;spacingRight=3;rotatable=0;labelPosition=right;points=[];portConstraint=eastwest;strokeColor=inherit;" parent="f68c-j39fGmjq_flesXu-26" vertex="1">
          <mxGeometry y="26" width="160" height="8" as="geometry" />
        </mxCell>
        <mxCell id="f68c-j39fGmjq_flesXu-29" value="discount(): BigDecimal" style="text;strokeColor=none;fillColor=none;align=left;verticalAlign=top;spacingLeft=4;spacingRight=4;overflow=hidden;rotatable=0;points=[[0,0.5],[1,0.5]];portConstraint=eastwest;whiteSpace=wrap;html=1;" parent="f68c-j39fGmjq_flesXu-26" vertex="1">
          <mxGeometry y="34" width="160" height="26" as="geometry" />
        </mxCell>
        <mxCell id="f68c-j39fGmjq_flesXu-34" value="" style="endArrow=block;dashed=1;endFill=0;endSize=12;html=1;rounded=0;exitX=0.5;exitY=0;exitDx=0;exitDy=0;" parent="1" source="f68c-j39fGmjq_flesXu-14" target="f68c-j39fGmjq_flesXu-10" edge="1">
          <mxGeometry width="160" relative="1" as="geometry">
            <mxPoint x="280" y="310" as="sourcePoint" />
            <mxPoint x="440" y="310" as="targetPoint" />
          </mxGeometry>
        </mxCell>
        <mxCell id="f68c-j39fGmjq_flesXu-35" value="" style="endArrow=block;dashed=1;endFill=0;endSize=12;html=1;rounded=0;exitX=0.5;exitY=0;exitDx=0;exitDy=0;" parent="1" source="f68c-j39fGmjq_flesXu-18" target="f68c-j39fGmjq_flesXu-10" edge="1">
          <mxGeometry width="160" relative="1" as="geometry">
            <mxPoint x="115" y="200" as="sourcePoint" />
            <mxPoint x="297" y="120" as="targetPoint" />
          </mxGeometry>
        </mxCell>
        <mxCell id="f68c-j39fGmjq_flesXu-36" value="" style="endArrow=block;dashed=1;endFill=0;endSize=12;html=1;rounded=0;exitX=0.5;exitY=0;exitDx=0;exitDy=0;" parent="1" source="f68c-j39fGmjq_flesXu-22" target="f68c-j39fGmjq_flesXu-10" edge="1">
          <mxGeometry width="160" relative="1" as="geometry">
            <mxPoint x="125" y="210" as="sourcePoint" />
            <mxPoint x="307" y="130" as="targetPoint" />
          </mxGeometry>
        </mxCell>
        <mxCell id="f68c-j39fGmjq_flesXu-37" value="" style="endArrow=block;dashed=1;endFill=0;endSize=12;html=1;rounded=0;exitX=0.5;exitY=0;exitDx=0;exitDy=0;" parent="1" source="f68c-j39fGmjq_flesXu-26" target="f68c-j39fGmjq_flesXu-10" edge="1">
          <mxGeometry width="160" relative="1" as="geometry">
            <mxPoint x="135" y="220" as="sourcePoint" />
            <mxPoint x="317" y="140" as="targetPoint" />
          </mxGeometry>
        </mxCell>
        <mxCell id="f68c-j39fGmjq_flesXu-38" value="MembershipFactory" style="swimlane;fontStyle=1;align=center;verticalAlign=top;childLayout=stackLayout;horizontal=1;startSize=26;horizontalStack=0;resizeParent=1;resizeParentMax=0;resizeLast=0;collapsible=1;marginBottom=0;whiteSpace=wrap;html=1;" parent="1" vertex="1">
          <mxGeometry x="262.5" y="350" width="235" height="60" as="geometry" />
        </mxCell>
        <mxCell id="f68c-j39fGmjq_flesXu-40" value="" style="line;strokeWidth=1;fillColor=none;align=left;verticalAlign=middle;spacingTop=-1;spacingLeft=3;spacingRight=3;rotatable=0;labelPosition=right;points=[];portConstraint=eastwest;strokeColor=inherit;" parent="f68c-j39fGmjq_flesXu-38" vertex="1">
          <mxGeometry y="26" width="235" height="8" as="geometry" />
        </mxCell>
        <mxCell id="f68c-j39fGmjq_flesXu-41" value="+ build(purchases: Int): Membership" style="text;strokeColor=none;fillColor=none;align=left;verticalAlign=top;spacingLeft=4;spacingRight=4;overflow=hidden;rotatable=0;points=[[0,0.5],[1,0.5]];portConstraint=eastwest;whiteSpace=wrap;html=1;" parent="f68c-j39fGmjq_flesXu-38" vertex="1">
          <mxGeometry y="34" width="235" height="26" as="geometry" />
        </mxCell>
        <mxCell id="f68c-j39fGmjq_flesXu-42" value="Use" style="endArrow=open;endSize=12;dashed=1;html=1;rounded=0;" parent="1" source="f68c-j39fGmjq_flesXu-38" target="f68c-j39fGmjq_flesXu-22" edge="1">
          <mxGeometry width="160" relative="1" as="geometry">
            <mxPoint x="280" y="310" as="sourcePoint" />
            <mxPoint x="440" y="310" as="targetPoint" />
          </mxGeometry>
        </mxCell>
        <mxCell id="f68c-j39fGmjq_flesXu-43" value="Use" style="endArrow=open;endSize=12;dashed=1;html=1;rounded=0;" parent="1" source="f68c-j39fGmjq_flesXu-38" target="f68c-j39fGmjq_flesXu-26" edge="1">
          <mxGeometry width="160" relative="1" as="geometry">
            <mxPoint x="434" y="360" as="sourcePoint" />
            <mxPoint x="477" y="260" as="targetPoint" />
          </mxGeometry>
        </mxCell>
        <mxCell id="f68c-j39fGmjq_flesXu-44" value="Use" style="endArrow=open;endSize=12;dashed=1;html=1;rounded=0;" parent="1" source="f68c-j39fGmjq_flesXu-38" target="f68c-j39fGmjq_flesXu-18" edge="1">
          <mxGeometry width="160" relative="1" as="geometry">
            <mxPoint x="444" y="370" as="sourcePoint" />
            <mxPoint x="487" y="270" as="targetPoint" />
          </mxGeometry>
        </mxCell>
        <mxCell id="f68c-j39fGmjq_flesXu-45" value="Use" style="endArrow=open;endSize=12;dashed=1;html=1;rounded=0;" parent="1" source="f68c-j39fGmjq_flesXu-38" target="f68c-j39fGmjq_flesXu-14" edge="1">
          <mxGeometry width="160" relative="1" as="geometry">
            <mxPoint x="454" y="380" as="sourcePoint" />
            <mxPoint x="497" y="280" as="targetPoint" />
          </mxGeometry>
        </mxCell>
        <mxCell id="f68c-j39fGmjq_flesXu-51" value="Use" style="endArrow=open;endSize=12;dashed=1;html=1;rounded=0;" parent="1" source="f68c-j39fGmjq_flesXu-57" target="f68c-j39fGmjq_flesXu-38" edge="1">
          <mxGeometry width="160" relative="1" as="geometry">
            <mxPoint x="380" y="516" as="sourcePoint" />
            <mxPoint x="473" y="260" as="targetPoint" />
          </mxGeometry>
        </mxCell>
        <mxCell id="f68c-j39fGmjq_flesXu-57" value="&lt;div&gt;SaloonManagement&lt;/div&gt;" style="swimlane;fontStyle=1;align=center;verticalAlign=top;childLayout=stackLayout;horizontal=1;startSize=26;horizontalStack=0;resizeParent=1;resizeParentMax=0;resizeLast=0;collapsible=1;marginBottom=0;whiteSpace=wrap;html=1;" parent="1" vertex="1">
          <mxGeometry x="170" y="490" width="420" height="180" as="geometry" />
        </mxCell>
        <mxCell id="f68c-j39fGmjq_flesXu-58" value="- billedCount: Integer" style="text;strokeColor=none;fillColor=none;align=left;verticalAlign=top;spacingLeft=4;spacingRight=4;overflow=hidden;rotatable=0;points=[[0,0.5],[1,0.5]];portConstraint=eastwest;whiteSpace=wrap;html=1;" parent="f68c-j39fGmjq_flesXu-57" vertex="1">
          <mxGeometry y="26" width="420" height="24" as="geometry" />
        </mxCell>
        <mxCell id="9ddZlnDegC3F6U_vJNAE-7" value="- openedBillsCount: Integer" style="text;strokeColor=none;fillColor=none;align=left;verticalAlign=top;spacingLeft=4;spacingRight=4;overflow=hidden;rotatable=0;points=[[0,0.5],[1,0.5]];portConstraint=eastwest;whiteSpace=wrap;html=1;" parent="f68c-j39fGmjq_flesXu-57" vertex="1">
          <mxGeometry y="50" width="420" height="30" as="geometry" />
        </mxCell>
        <mxCell id="f68c-j39fGmjq_flesXu-59" value="" style="line;strokeWidth=1;fillColor=none;align=left;verticalAlign=middle;spacingTop=-1;spacingLeft=3;spacingRight=3;rotatable=0;labelPosition=right;points=[];portConstraint=eastwest;strokeColor=inherit;" parent="f68c-j39fGmjq_flesXu-57" vertex="1">
          <mxGeometry y="80" width="420" height="8" as="geometry" />
        </mxCell>
        <mxCell id="f68c-j39fGmjq_flesXu-60" value="&lt;div&gt;+ prePay(customer: Customer, product: List&amp;lt;Product&amp;gt;): BillPreview&lt;/div&gt;" style="text;strokeColor=none;fillColor=none;align=left;verticalAlign=top;spacingLeft=4;spacingRight=4;overflow=hidden;rotatable=0;points=[[0,0.5],[1,0.5]];portConstraint=eastwest;whiteSpace=wrap;html=1;" parent="f68c-j39fGmjq_flesXu-57" vertex="1">
          <mxGeometry y="88" width="420" height="32" as="geometry" />
        </mxCell>
        <mxCell id="xqHbZFvS5-6DyiHdzUuO-30" value="+ pay(billPreview: BillPreview): Bill" style="text;strokeColor=none;fillColor=none;align=left;verticalAlign=top;spacingLeft=4;spacingRight=4;overflow=hidden;rotatable=0;points=[[0,0.5],[1,0.5]];portConstraint=eastwest;whiteSpace=wrap;html=1;" vertex="1" parent="f68c-j39fGmjq_flesXu-57">
          <mxGeometry y="120" width="420" height="30" as="geometry" />
        </mxCell>
        <mxCell id="9ddZlnDegC3F6U_vJNAE-6" value="+ printSales(): String" style="text;strokeColor=none;fillColor=none;align=left;verticalAlign=top;spacingLeft=4;spacingRight=4;overflow=hidden;rotatable=0;points=[[0,0.5],[1,0.5]];portConstraint=eastwest;whiteSpace=wrap;html=1;" parent="f68c-j39fGmjq_flesXu-57" vertex="1">
          <mxGeometry y="150" width="420" height="30" as="geometry" />
        </mxCell>
        <mxCell id="f68c-j39fGmjq_flesXu-61" value="Use" style="endArrow=open;endSize=12;dashed=1;html=1;rounded=0;" parent="1" source="f68c-j39fGmjq_flesXu-57" target="f68c-j39fGmjq_flesXu-67" edge="1">
          <mxGeometry width="160" relative="1" as="geometry">
            <mxPoint x="255" y="578" as="sourcePoint" />
            <mxPoint x="82.32758620689651" y="638" as="targetPoint" />
          </mxGeometry>
        </mxCell>
        <mxCell id="f68c-j39fGmjq_flesXu-62" value="Use" style="endArrow=open;endSize=12;dashed=1;html=1;rounded=0;" parent="1" source="f68c-j39fGmjq_flesXu-57" target="f68c-j39fGmjq_flesXu-82" edge="1">
          <mxGeometry width="160" relative="1" as="geometry">
            <mxPoint x="197" y="720" as="sourcePoint" />
            <mxPoint x="349.66804979253106" y="602" as="targetPoint" />
          </mxGeometry>
        </mxCell>
        <mxCell id="f68c-j39fGmjq_flesXu-63" value="BillPreview" style="swimlane;fontStyle=1;align=center;verticalAlign=top;childLayout=stackLayout;horizontal=1;startSize=26;horizontalStack=0;resizeParent=1;resizeParentMax=0;resizeLast=0;collapsible=1;marginBottom=0;whiteSpace=wrap;html=1;" parent="1" vertex="1">
          <mxGeometry x="-200" y="528" width="270" height="104" as="geometry" />
        </mxCell>
        <mxCell id="f68c-j39fGmjq_flesXu-64" value="- customer: Customer" style="text;strokeColor=none;fillColor=none;align=left;verticalAlign=top;spacingLeft=4;spacingRight=4;overflow=hidden;rotatable=0;points=[[0,0.5],[1,0.5]];portConstraint=eastwest;whiteSpace=wrap;html=1;" parent="f68c-j39fGmjq_flesXu-63" vertex="1">
          <mxGeometry y="26" width="270" height="24" as="geometry" />
        </mxCell>
        <mxCell id="9ddZlnDegC3F6U_vJNAE-8" value="- products: List&amp;lt;Product&amp;gt;" style="text;strokeColor=none;fillColor=none;align=left;verticalAlign=top;spacingLeft=4;spacingRight=4;overflow=hidden;rotatable=0;points=[[0,0.5],[1,0.5]];portConstraint=eastwest;whiteSpace=wrap;html=1;" parent="f68c-j39fGmjq_flesXu-63" vertex="1">
          <mxGeometry y="50" width="270" height="20" as="geometry" />
        </mxCell>
        <mxCell id="f68c-j39fGmjq_flesXu-65" value="" style="line;strokeWidth=1;fillColor=none;align=left;verticalAlign=middle;spacingTop=-1;spacingLeft=3;spacingRight=3;rotatable=0;labelPosition=right;points=[];portConstraint=eastwest;strokeColor=inherit;" parent="f68c-j39fGmjq_flesXu-63" vertex="1">
          <mxGeometry y="70" width="270" height="8" as="geometry" />
        </mxCell>
        <mxCell id="V8JBUHViHBTaSssKClYc-2" value="&lt;div&gt;+ close(): Bill&lt;/div&gt;" style="text;strokeColor=none;fillColor=none;align=left;verticalAlign=top;spacingLeft=4;spacingRight=4;overflow=hidden;rotatable=0;points=[[0,0.5],[1,0.5]];portConstraint=eastwest;whiteSpace=wrap;html=1;" parent="f68c-j39fGmjq_flesXu-63" vertex="1">
          <mxGeometry y="78" width="270" height="26" as="geometry" />
        </mxCell>
        <mxCell id="f68c-j39fGmjq_flesXu-67" value="Product" style="swimlane;fontStyle=1;align=center;verticalAlign=top;childLayout=stackLayout;horizontal=1;startSize=26;horizontalStack=0;resizeParent=1;resizeParentMax=0;resizeLast=0;collapsible=1;marginBottom=0;whiteSpace=wrap;html=1;" parent="1" vertex="1">
          <mxGeometry x="690" y="536" width="160" height="88" as="geometry" />
        </mxCell>
        <mxCell id="f68c-j39fGmjq_flesXu-69" value="" style="line;strokeWidth=1;fillColor=none;align=left;verticalAlign=middle;spacingTop=-1;spacingLeft=3;spacingRight=3;rotatable=0;labelPosition=right;points=[];portConstraint=eastwest;strokeColor=inherit;" parent="f68c-j39fGmjq_flesXu-67" vertex="1">
          <mxGeometry y="26" width="160" height="8" as="geometry" />
        </mxCell>
        <mxCell id="f68c-j39fGmjq_flesXu-68" value="+ price(): BigDecimal" style="text;strokeColor=none;fillColor=none;align=left;verticalAlign=top;spacingLeft=4;spacingRight=4;overflow=hidden;rotatable=0;points=[[0,0.5],[1,0.5]];portConstraint=eastwest;whiteSpace=wrap;html=1;" parent="f68c-j39fGmjq_flesXu-67" vertex="1">
          <mxGeometry y="34" width="160" height="24" as="geometry" />
        </mxCell>
        <mxCell id="9ddZlnDegC3F6U_vJNAE-13" value="+ description(): String" style="text;strokeColor=none;fillColor=none;align=left;verticalAlign=top;spacingLeft=4;spacingRight=4;overflow=hidden;rotatable=0;points=[[0,0.5],[1,0.5]];portConstraint=eastwest;whiteSpace=wrap;html=1;" parent="f68c-j39fGmjq_flesXu-67" vertex="1">
          <mxGeometry y="58" width="160" height="30" as="geometry" />
        </mxCell>
        <mxCell id="f68c-j39fGmjq_flesXu-71" value="Use" style="endArrow=open;endSize=12;dashed=1;html=1;rounded=0;" parent="1" source="f68c-j39fGmjq_flesXu-57" target="f68c-j39fGmjq_flesXu-63" edge="1">
          <mxGeometry width="160" relative="1" as="geometry">
            <mxPoint x="275" y="740" as="sourcePoint" />
            <mxPoint x="353" y="630" as="targetPoint" />
          </mxGeometry>
        </mxCell>
        <mxCell id="f68c-j39fGmjq_flesXu-82" value="Customer" style="swimlane;fontStyle=1;align=center;verticalAlign=top;childLayout=stackLayout;horizontal=1;startSize=26;horizontalStack=0;resizeParent=1;resizeParentMax=0;resizeLast=0;collapsible=1;marginBottom=0;whiteSpace=wrap;html=1;" parent="1" vertex="1">
          <mxGeometry x="480" y="720" width="290" height="238" as="geometry" />
        </mxCell>
        <mxCell id="f68c-j39fGmjq_flesXu-83" value="- name: String" style="text;strokeColor=none;fillColor=none;align=left;verticalAlign=top;spacingLeft=4;spacingRight=4;overflow=hidden;rotatable=0;points=[[0,0.5],[1,0.5]];portConstraint=eastwest;whiteSpace=wrap;html=1;" parent="f68c-j39fGmjq_flesXu-82" vertex="1">
          <mxGeometry y="26" width="290" height="24" as="geometry" />
        </mxCell>
        <mxCell id="xqHbZFvS5-6DyiHdzUuO-27" value="- purchaseCount: Integer" style="text;strokeColor=none;fillColor=none;align=left;verticalAlign=top;spacingLeft=4;spacingRight=4;overflow=hidden;rotatable=0;points=[[0,0.5],[1,0.5]];portConstraint=eastwest;whiteSpace=wrap;html=1;" vertex="1" parent="f68c-j39fGmjq_flesXu-82">
          <mxGeometry y="50" width="290" height="30" as="geometry" />
        </mxCell>
        <mxCell id="xqHbZFvS5-6DyiHdzUuO-26" value="- membership: Membership" style="text;strokeColor=none;fillColor=none;align=left;verticalAlign=top;spacingLeft=4;spacingRight=4;overflow=hidden;rotatable=0;points=[[0,0.5],[1,0.5]];portConstraint=eastwest;whiteSpace=wrap;html=1;" vertex="1" parent="f68c-j39fGmjq_flesXu-82">
          <mxGeometry y="80" width="290" height="30" as="geometry" />
        </mxCell>
        <mxCell id="f68c-j39fGmjq_flesXu-84" value="" style="line;strokeWidth=1;fillColor=none;align=left;verticalAlign=middle;spacingTop=-1;spacingLeft=3;spacingRight=3;rotatable=0;labelPosition=right;points=[];portConstraint=eastwest;strokeColor=inherit;" parent="f68c-j39fGmjq_flesXu-82" vertex="1">
          <mxGeometry y="110" width="290" height="8" as="geometry" />
        </mxCell>
        <mxCell id="xqHbZFvS5-6DyiHdzUuO-31" value="+ printName(): String" style="text;strokeColor=none;fillColor=none;align=left;verticalAlign=top;spacingLeft=4;spacingRight=4;overflow=hidden;rotatable=0;points=[[0,0.5],[1,0.5]];portConstraint=eastwest;whiteSpace=wrap;html=1;" vertex="1" parent="f68c-j39fGmjq_flesXu-82">
          <mxGeometry y="118" width="290" height="30" as="geometry" />
        </mxCell>
        <mxCell id="9ddZlnDegC3F6U_vJNAE-14" value="+ printMembershipName(): String" style="text;strokeColor=none;fillColor=none;align=left;verticalAlign=top;spacingLeft=4;spacingRight=4;overflow=hidden;rotatable=0;points=[[0,0.5],[1,0.5]];portConstraint=eastwest;whiteSpace=wrap;html=1;" parent="f68c-j39fGmjq_flesXu-82" vertex="1">
          <mxGeometry y="148" width="290" height="30" as="geometry" />
        </mxCell>
        <mxCell id="xqHbZFvS5-6DyiHdzUuO-28" value="+ increasePurchase(): Long" style="text;strokeColor=none;fillColor=none;align=left;verticalAlign=top;spacingLeft=4;spacingRight=4;overflow=hidden;rotatable=0;points=[[0,0.5],[1,0.5]];portConstraint=eastwest;whiteSpace=wrap;html=1;" vertex="1" parent="f68c-j39fGmjq_flesXu-82">
          <mxGeometry y="178" width="290" height="30" as="geometry" />
        </mxCell>
        <mxCell id="xqHbZFvS5-6DyiHdzUuO-29" value="+ updateMembership(): Membership" style="text;strokeColor=none;fillColor=none;align=left;verticalAlign=top;spacingLeft=4;spacingRight=4;overflow=hidden;rotatable=0;points=[[0,0.5],[1,0.5]];portConstraint=eastwest;whiteSpace=wrap;html=1;" vertex="1" parent="f68c-j39fGmjq_flesXu-82">
          <mxGeometry y="208" width="290" height="30" as="geometry" />
        </mxCell>
        <mxCell id="9ddZlnDegC3F6U_vJNAE-1" value="Bill" style="swimlane;fontStyle=1;align=center;verticalAlign=top;childLayout=stackLayout;horizontal=1;startSize=26;horizontalStack=0;resizeParent=1;resizeParentMax=0;resizeLast=0;collapsible=1;marginBottom=0;whiteSpace=wrap;html=1;" parent="1" vertex="1">
          <mxGeometry x="20" y="720" width="270" height="184" as="geometry" />
        </mxCell>
        <mxCell id="9ddZlnDegC3F6U_vJNAE-11" value="- products: List&amp;lt;Product&amp;gt;" style="text;strokeColor=none;fillColor=none;align=left;verticalAlign=top;spacingLeft=4;spacingRight=4;overflow=hidden;rotatable=0;points=[[0,0.5],[1,0.5]];portConstraint=eastwest;whiteSpace=wrap;html=1;" parent="9ddZlnDegC3F6U_vJNAE-1" vertex="1">
          <mxGeometry y="26" width="270" height="24" as="geometry" />
        </mxCell>
        <mxCell id="9ddZlnDegC3F6U_vJNAE-10" value="- customer: Customer" style="text;strokeColor=none;fillColor=none;align=left;verticalAlign=top;spacingLeft=4;spacingRight=4;overflow=hidden;rotatable=0;points=[[0,0.5],[1,0.5]];portConstraint=eastwest;whiteSpace=wrap;html=1;" parent="9ddZlnDegC3F6U_vJNAE-1" vertex="1">
          <mxGeometry y="50" width="270" height="24" as="geometry" />
        </mxCell>
        <mxCell id="8KkZ6U-MVzb3QbbRjRhr-1" value="- invoice: Integer" style="text;strokeColor=none;fillColor=none;align=left;verticalAlign=top;spacingLeft=4;spacingRight=4;overflow=hidden;rotatable=0;points=[[0,0.5],[1,0.5]];portConstraint=eastwest;whiteSpace=wrap;html=1;" parent="9ddZlnDegC3F6U_vJNAE-1" vertex="1">
          <mxGeometry y="74" width="270" height="24" as="geometry" />
        </mxCell>
        <mxCell id="9ddZlnDegC3F6U_vJNAE-3" value="" style="line;strokeWidth=1;fillColor=none;align=left;verticalAlign=middle;spacingTop=-1;spacingLeft=3;spacingRight=3;rotatable=0;labelPosition=right;points=[];portConstraint=eastwest;strokeColor=inherit;" parent="9ddZlnDegC3F6U_vJNAE-1" vertex="1">
          <mxGeometry y="98" width="270" height="8" as="geometry" />
        </mxCell>
        <mxCell id="xqHbZFvS5-6DyiHdzUuO-32" value="+ calculateAmount(): BigDecimal" style="text;strokeColor=none;fillColor=none;align=left;verticalAlign=top;spacingLeft=4;spacingRight=4;overflow=hidden;rotatable=0;points=[[0,0.5],[1,0.5]];portConstraint=eastwest;whiteSpace=wrap;html=1;" vertex="1" parent="9ddZlnDegC3F6U_vJNAE-1">
          <mxGeometry y="106" width="270" height="26" as="geometry" />
        </mxCell>
        <mxCell id="xqHbZFvS5-6DyiHdzUuO-33" value="+ calculateDiscount(): BigDecimal" style="text;strokeColor=none;fillColor=none;align=left;verticalAlign=top;spacingLeft=4;spacingRight=4;overflow=hidden;rotatable=0;points=[[0,0.5],[1,0.5]];portConstraint=eastwest;whiteSpace=wrap;html=1;" vertex="1" parent="9ddZlnDegC3F6U_vJNAE-1">
          <mxGeometry y="132" width="270" height="26" as="geometry" />
        </mxCell>
        <mxCell id="9ddZlnDegC3F6U_vJNAE-4" value="+ print(): String" style="text;strokeColor=none;fillColor=none;align=left;verticalAlign=top;spacingLeft=4;spacingRight=4;overflow=hidden;rotatable=0;points=[[0,0.5],[1,0.5]];portConstraint=eastwest;whiteSpace=wrap;html=1;" parent="9ddZlnDegC3F6U_vJNAE-1" vertex="1">
          <mxGeometry y="158" width="270" height="26" as="geometry" />
        </mxCell>
        <mxCell id="9ddZlnDegC3F6U_vJNAE-9" value="Use" style="endArrow=open;endSize=12;dashed=1;html=1;rounded=0;" parent="1" source="f68c-j39fGmjq_flesXu-57" target="9ddZlnDegC3F6U_vJNAE-1" edge="1">
          <mxGeometry width="160" relative="1" as="geometry">
            <mxPoint x="210" y="638" as="sourcePoint" />
            <mxPoint x="370" y="648" as="targetPoint" />
          </mxGeometry>
        </mxCell>
        <mxCell id="xqHbZFvS5-6DyiHdzUuO-1" value="Beer" style="swimlane;fontStyle=1;align=center;verticalAlign=top;childLayout=stackLayout;horizontal=1;startSize=26;horizontalStack=0;resizeParent=1;resizeParentMax=0;resizeLast=0;collapsible=1;marginBottom=0;whiteSpace=wrap;html=1;" vertex="1" parent="1">
          <mxGeometry x="860" y="290" width="160" height="88" as="geometry" />
        </mxCell>
        <mxCell id="xqHbZFvS5-6DyiHdzUuO-2" value="" style="line;strokeWidth=1;fillColor=none;align=left;verticalAlign=middle;spacingTop=-1;spacingLeft=3;spacingRight=3;rotatable=0;labelPosition=right;points=[];portConstraint=eastwest;strokeColor=inherit;" vertex="1" parent="xqHbZFvS5-6DyiHdzUuO-1">
          <mxGeometry y="26" width="160" height="8" as="geometry" />
        </mxCell>
        <mxCell id="xqHbZFvS5-6DyiHdzUuO-3" value="+ price(): BigDecimal" style="text;strokeColor=none;fillColor=none;align=left;verticalAlign=top;spacingLeft=4;spacingRight=4;overflow=hidden;rotatable=0;points=[[0,0.5],[1,0.5]];portConstraint=eastwest;whiteSpace=wrap;html=1;" vertex="1" parent="xqHbZFvS5-6DyiHdzUuO-1">
          <mxGeometry y="34" width="160" height="24" as="geometry" />
        </mxCell>
        <mxCell id="xqHbZFvS5-6DyiHdzUuO-4" value="+ description(): String" style="text;strokeColor=none;fillColor=none;align=left;verticalAlign=top;spacingLeft=4;spacingRight=4;overflow=hidden;rotatable=0;points=[[0,0.5],[1,0.5]];portConstraint=eastwest;whiteSpace=wrap;html=1;" vertex="1" parent="xqHbZFvS5-6DyiHdzUuO-1">
          <mxGeometry y="58" width="160" height="30" as="geometry" />
        </mxCell>
        <mxCell id="xqHbZFvS5-6DyiHdzUuO-5" value="" style="endArrow=block;dashed=1;endFill=0;endSize=12;html=1;rounded=0;" edge="1" parent="1" source="xqHbZFvS5-6DyiHdzUuO-1" target="f68c-j39fGmjq_flesXu-67">
          <mxGeometry width="160" relative="1" as="geometry">
            <mxPoint x="840" y="370" as="sourcePoint" />
            <mxPoint x="476" y="120" as="targetPoint" />
          </mxGeometry>
        </mxCell>
        <mxCell id="xqHbZFvS5-6DyiHdzUuO-6" value="Coke" style="swimlane;fontStyle=1;align=center;verticalAlign=top;childLayout=stackLayout;horizontal=1;startSize=26;horizontalStack=0;resizeParent=1;resizeParentMax=0;resizeLast=0;collapsible=1;marginBottom=0;whiteSpace=wrap;html=1;" vertex="1" parent="1">
          <mxGeometry x="920" y="390" width="160" height="88" as="geometry" />
        </mxCell>
        <mxCell id="xqHbZFvS5-6DyiHdzUuO-7" value="" style="line;strokeWidth=1;fillColor=none;align=left;verticalAlign=middle;spacingTop=-1;spacingLeft=3;spacingRight=3;rotatable=0;labelPosition=right;points=[];portConstraint=eastwest;strokeColor=inherit;" vertex="1" parent="xqHbZFvS5-6DyiHdzUuO-6">
          <mxGeometry y="26" width="160" height="8" as="geometry" />
        </mxCell>
        <mxCell id="xqHbZFvS5-6DyiHdzUuO-8" value="+ price(): BigDecimal" style="text;strokeColor=none;fillColor=none;align=left;verticalAlign=top;spacingLeft=4;spacingRight=4;overflow=hidden;rotatable=0;points=[[0,0.5],[1,0.5]];portConstraint=eastwest;whiteSpace=wrap;html=1;" vertex="1" parent="xqHbZFvS5-6DyiHdzUuO-6">
          <mxGeometry y="34" width="160" height="24" as="geometry" />
        </mxCell>
        <mxCell id="xqHbZFvS5-6DyiHdzUuO-9" value="+ description(): String" style="text;strokeColor=none;fillColor=none;align=left;verticalAlign=top;spacingLeft=4;spacingRight=4;overflow=hidden;rotatable=0;points=[[0,0.5],[1,0.5]];portConstraint=eastwest;whiteSpace=wrap;html=1;" vertex="1" parent="xqHbZFvS5-6DyiHdzUuO-6">
          <mxGeometry y="58" width="160" height="30" as="geometry" />
        </mxCell>
        <mxCell id="xqHbZFvS5-6DyiHdzUuO-10" value="Tea" style="swimlane;fontStyle=1;align=center;verticalAlign=top;childLayout=stackLayout;horizontal=1;startSize=26;horizontalStack=0;resizeParent=1;resizeParentMax=0;resizeLast=0;collapsible=1;marginBottom=0;whiteSpace=wrap;html=1;" vertex="1" parent="1">
          <mxGeometry x="940" y="500" width="160" height="88" as="geometry" />
        </mxCell>
        <mxCell id="xqHbZFvS5-6DyiHdzUuO-11" value="" style="line;strokeWidth=1;fillColor=none;align=left;verticalAlign=middle;spacingTop=-1;spacingLeft=3;spacingRight=3;rotatable=0;labelPosition=right;points=[];portConstraint=eastwest;strokeColor=inherit;" vertex="1" parent="xqHbZFvS5-6DyiHdzUuO-10">
          <mxGeometry y="26" width="160" height="8" as="geometry" />
        </mxCell>
        <mxCell id="xqHbZFvS5-6DyiHdzUuO-12" value="+ price(): BigDecimal" style="text;strokeColor=none;fillColor=none;align=left;verticalAlign=top;spacingLeft=4;spacingRight=4;overflow=hidden;rotatable=0;points=[[0,0.5],[1,0.5]];portConstraint=eastwest;whiteSpace=wrap;html=1;" vertex="1" parent="xqHbZFvS5-6DyiHdzUuO-10">
          <mxGeometry y="34" width="160" height="24" as="geometry" />
        </mxCell>
        <mxCell id="xqHbZFvS5-6DyiHdzUuO-13" value="+ description(): String" style="text;strokeColor=none;fillColor=none;align=left;verticalAlign=top;spacingLeft=4;spacingRight=4;overflow=hidden;rotatable=0;points=[[0,0.5],[1,0.5]];portConstraint=eastwest;whiteSpace=wrap;html=1;" vertex="1" parent="xqHbZFvS5-6DyiHdzUuO-10">
          <mxGeometry y="58" width="160" height="30" as="geometry" />
        </mxCell>
        <mxCell id="xqHbZFvS5-6DyiHdzUuO-14" value="FrenchFries" style="swimlane;fontStyle=1;align=center;verticalAlign=top;childLayout=stackLayout;horizontal=1;startSize=26;horizontalStack=0;resizeParent=1;resizeParentMax=0;resizeLast=0;collapsible=1;marginBottom=0;whiteSpace=wrap;html=1;" vertex="1" parent="1">
          <mxGeometry x="940" y="610" width="160" height="88" as="geometry" />
        </mxCell>
        <mxCell id="xqHbZFvS5-6DyiHdzUuO-15" value="" style="line;strokeWidth=1;fillColor=none;align=left;verticalAlign=middle;spacingTop=-1;spacingLeft=3;spacingRight=3;rotatable=0;labelPosition=right;points=[];portConstraint=eastwest;strokeColor=inherit;" vertex="1" parent="xqHbZFvS5-6DyiHdzUuO-14">
          <mxGeometry y="26" width="160" height="8" as="geometry" />
        </mxCell>
        <mxCell id="xqHbZFvS5-6DyiHdzUuO-16" value="+ price(): BigDecimal" style="text;strokeColor=none;fillColor=none;align=left;verticalAlign=top;spacingLeft=4;spacingRight=4;overflow=hidden;rotatable=0;points=[[0,0.5],[1,0.5]];portConstraint=eastwest;whiteSpace=wrap;html=1;" vertex="1" parent="xqHbZFvS5-6DyiHdzUuO-14">
          <mxGeometry y="34" width="160" height="24" as="geometry" />
        </mxCell>
        <mxCell id="xqHbZFvS5-6DyiHdzUuO-17" value="+ description(): String" style="text;strokeColor=none;fillColor=none;align=left;verticalAlign=top;spacingLeft=4;spacingRight=4;overflow=hidden;rotatable=0;points=[[0,0.5],[1,0.5]];portConstraint=eastwest;whiteSpace=wrap;html=1;" vertex="1" parent="xqHbZFvS5-6DyiHdzUuO-14">
          <mxGeometry y="58" width="160" height="30" as="geometry" />
        </mxCell>
        <mxCell id="xqHbZFvS5-6DyiHdzUuO-18" value="" style="endArrow=block;dashed=1;endFill=0;endSize=12;html=1;rounded=0;" edge="1" parent="1" source="xqHbZFvS5-6DyiHdzUuO-6" target="f68c-j39fGmjq_flesXu-67">
          <mxGeometry width="160" relative="1" as="geometry">
            <mxPoint x="946" y="468" as="sourcePoint" />
            <mxPoint x="854" y="531" as="targetPoint" />
          </mxGeometry>
        </mxCell>
        <mxCell id="xqHbZFvS5-6DyiHdzUuO-19" value="" style="endArrow=block;dashed=1;endFill=0;endSize=12;html=1;rounded=0;" edge="1" parent="1" source="xqHbZFvS5-6DyiHdzUuO-10" target="f68c-j39fGmjq_flesXu-67">
          <mxGeometry width="160" relative="1" as="geometry">
            <mxPoint x="956" y="478" as="sourcePoint" />
            <mxPoint x="864" y="541" as="targetPoint" />
          </mxGeometry>
        </mxCell>
        <mxCell id="xqHbZFvS5-6DyiHdzUuO-20" value="" style="endArrow=block;dashed=1;endFill=0;endSize=12;html=1;rounded=0;" edge="1" parent="1" source="xqHbZFvS5-6DyiHdzUuO-14" target="f68c-j39fGmjq_flesXu-67">
          <mxGeometry width="160" relative="1" as="geometry">
            <mxPoint x="966" y="488" as="sourcePoint" />
            <mxPoint x="874" y="551" as="targetPoint" />
          </mxGeometry>
        </mxCell>
        <mxCell id="xqHbZFvS5-6DyiHdzUuO-21" value="Water" style="swimlane;fontStyle=1;align=center;verticalAlign=top;childLayout=stackLayout;horizontal=1;startSize=26;horizontalStack=0;resizeParent=1;resizeParentMax=0;resizeLast=0;collapsible=1;marginBottom=0;whiteSpace=wrap;html=1;" vertex="1" parent="1">
          <mxGeometry x="900" y="720" width="160" height="88" as="geometry" />
        </mxCell>
        <mxCell id="xqHbZFvS5-6DyiHdzUuO-22" value="" style="line;strokeWidth=1;fillColor=none;align=left;verticalAlign=middle;spacingTop=-1;spacingLeft=3;spacingRight=3;rotatable=0;labelPosition=right;points=[];portConstraint=eastwest;strokeColor=inherit;" vertex="1" parent="xqHbZFvS5-6DyiHdzUuO-21">
          <mxGeometry y="26" width="160" height="8" as="geometry" />
        </mxCell>
        <mxCell id="xqHbZFvS5-6DyiHdzUuO-23" value="+ price(): BigDecimal" style="text;strokeColor=none;fillColor=none;align=left;verticalAlign=top;spacingLeft=4;spacingRight=4;overflow=hidden;rotatable=0;points=[[0,0.5],[1,0.5]];portConstraint=eastwest;whiteSpace=wrap;html=1;" vertex="1" parent="xqHbZFvS5-6DyiHdzUuO-21">
          <mxGeometry y="34" width="160" height="24" as="geometry" />
        </mxCell>
        <mxCell id="xqHbZFvS5-6DyiHdzUuO-24" value="+ description(): String" style="text;strokeColor=none;fillColor=none;align=left;verticalAlign=top;spacingLeft=4;spacingRight=4;overflow=hidden;rotatable=0;points=[[0,0.5],[1,0.5]];portConstraint=eastwest;whiteSpace=wrap;html=1;" vertex="1" parent="xqHbZFvS5-6DyiHdzUuO-21">
          <mxGeometry y="58" width="160" height="30" as="geometry" />
        </mxCell>
        <mxCell id="xqHbZFvS5-6DyiHdzUuO-25" value="" style="endArrow=block;dashed=1;endFill=0;endSize=12;html=1;rounded=0;" edge="1" parent="1" source="xqHbZFvS5-6DyiHdzUuO-21" target="f68c-j39fGmjq_flesXu-67">
          <mxGeometry width="160" relative="1" as="geometry">
            <mxPoint x="956" y="710" as="sourcePoint" />
            <mxPoint x="844" y="619" as="targetPoint" />
          </mxGeometry>
        </mxCell>
      </root>
    </mxGraphModel>
  </diagram>
</mxfile>
